# xmcd
#
# Track frame offsets:
#	150
#	15807
#	31662
#	42650
#	53315
#	64640
#	74810
#	87450
#	104090
#	120975
#	135495
#	147027
#	159347
#	173140
#
# Disc length: 2472 seconds
#
# Revision: 1
# Processed by: cddbd v1.5.2PL0 Copyright (c) Steve Scherf et al.
# Submitted via: audiograbber 1.83.01
#
DISCID=b109a60e
DTITLE=Diverse - Der Traum von ewiger Liebe
DYEAR=1900
DGENRE=Volksmusik
TTITLE0=Patrick Lindner - Der Traum von ewiger Liebe
TTITLE1=Heino - Der heilige Antonius
TTITLE2=Peter Steiner - Ewig und drei Tag'
TTITLE3=Karl Moik - Servus, Grüazi und Hallo
TTITLE4=Edith Prock - Drob'n auf der Herzerl Alm
TTITLE5=Hansl Krönauer - Wie schön der Mond über'm Watzmann steht
TTITLE6=Original Zillertaler Jodlertrio - Komm und hock dich a bisserl zu mir
TTITLE7=Patrick Lindner - Irgendwann sag' ich für immer
TTITLE8=Maxl Graf - Neuli denk i, i laß mi rasiern
TTITLE9=Robert Jung - Aus Böhmen kommt die Musik
TTITLE10=Peter Steiner - Tschüß, sagt ma net in Bayern
TTITLE11=Takeo Ischi - Im Stadl ist heut Jodlerball
TTITLE12=Fred Bertelmann - Wir bleib'n in Bayern
TTITLE13=Julian Berg - Meine Heimat, meine Lieder
EXTD=
EXTT0=
EXTT1=
EXTT2=
EXTT3=
EXTT4=
EXTT5=
EXTT6=
EXTT7=
EXTT8=
EXTT9=
EXTT10=
EXTT11=
EXTT12=
EXTT13=
PLAYORDER=
